<?xml version="1.0" encoding="utf-8" standalone="no"?>
<!DOCTYPE svg PUBLIC "-//W3C//DTD SVG 1.1//EN"
  "http://www.w3.org/Graphics/SVG/1.1/DTD/svg11.dtd">
<!-- Created with matplotlib (https://matplotlib.org/) -->
<svg height="345.6pt" version="1.1" viewBox="0 0 460.8 345.6" width="460.8pt" xmlns="http://www.w3.org/2000/svg" xmlns:xlink="http://www.w3.org/1999/xlink">
 <defs>
  <style type="text/css">
*{stroke-linecap:butt;stroke-linejoin:round;}
  </style>
 </defs>
 <g id="figure_1">
  <g id="patch_1">
   <path d="M 0 345.6 
L 460.8 345.6 
L 460.8 0 
L 0 0 
z
" style="fill:#ffffff;"/>
  </g>
  <g id="axes_1">
   <g id="patch_2">
    <path d="M 57.6 307.584 
L 414.72 307.584 
L 414.72 41.472 
L 57.6 41.472 
z
" style="fill:#ffffff;"/>
   </g>
   <g id="matplotlib.axis_1">
    <g id="xtick_1">
     <g id="line2d_1">
      <path clip-path="url(#pc91cb19d4a)" d="M 73.832727 307.584 
L 73.832727 41.472 
" style="fill:none;stroke:#b0b0b0;stroke-linecap:square;stroke-width:0.8;"/>
     </g>
     <g id="line2d_2">
      <defs>
       <path d="M 0 0 
L 0 3.5 
" id="m7d875cd25c" style="stroke:#000000;stroke-width:0.8;"/>
      </defs>
      <g>
       <use style="stroke:#000000;stroke-width:0.8;" x="73.832727" xlink:href="#m7d875cd25c" y="307.584"/>
      </g>
     </g>
     <g id="text_1">
      <!-- 0 -->
      <defs>
       <path d="M 31.78125 66.40625 
Q 24.171875 66.40625 20.328125 58.90625 
Q 16.5 51.421875 16.5 36.375 
Q 16.5 21.390625 20.328125 13.890625 
Q 24.171875 6.390625 31.78125 6.390625 
Q 39.453125 6.390625 43.28125 13.890625 
Q 47.125 21.390625 47.125 36.375 
Q 47.125 51.421875 43.28125 58.90625 
Q 39.453125 66.40625 31.78125 66.40625 
z
M 31.78125 74.21875 
Q 44.046875 74.21875 50.515625 64.515625 
Q 56.984375 54.828125 56.984375 36.375 
Q 56.984375 17.96875 50.515625 8.265625 
Q 44.046875 -1.421875 31.78125 -1.421875 
Q 19.53125 -1.421875 13.0625 8.265625 
Q 6.59375 17.96875 6.59375 36.375 
Q 6.59375 54.828125 13.0625 64.515625 
Q 19.53125 74.21875 31.78125 74.21875 
z
" id="DejaVuSans-48"/>
      </defs>
      <g transform="translate(70.651477 322.182437)scale(0.1 -0.1)">
       <use xlink:href="#DejaVuSans-48"/>
      </g>
     </g>
    </g>
    <g id="xtick_2">
     <g id="line2d_3">
      <path clip-path="url(#pc91cb19d4a)" d="M 124.244924 307.584 
L 124.244924 41.472 
" style="fill:none;stroke:#b0b0b0;stroke-linecap:square;stroke-width:0.8;"/>
     </g>
     <g id="line2d_4">
      <g>
       <use style="stroke:#000000;stroke-width:0.8;" x="124.244924" xlink:href="#m7d875cd25c" y="307.584"/>
      </g>
     </g>
     <g id="text_2">
      <!-- 50 -->
      <defs>
       <path d="M 10.796875 72.90625 
L 49.515625 72.90625 
L 49.515625 64.59375 
L 19.828125 64.59375 
L 19.828125 46.734375 
Q 21.96875 47.46875 24.109375 47.828125 
Q 26.265625 48.1875 28.421875 48.1875 
Q 40.625 48.1875 47.75 41.5 
Q 54.890625 34.8125 54.890625 23.390625 
Q 54.890625 11.625 47.5625 5.09375 
Q 40.234375 -1.421875 26.90625 -1.421875 
Q 22.3125 -1.421875 17.546875 -0.640625 
Q 12.796875 0.140625 7.71875 1.703125 
L 7.71875 11.625 
Q 12.109375 9.234375 16.796875 8.0625 
Q 21.484375 6.890625 26.703125 6.890625 
Q 35.15625 6.890625 40.078125 11.328125 
Q 45.015625 15.765625 45.015625 23.390625 
Q 45.015625 31 40.078125 35.4375 
Q 35.15625 39.890625 26.703125 39.890625 
Q 22.75 39.890625 18.8125 39.015625 
Q 14.890625 38.140625 10.796875 36.28125 
z
" id="DejaVuSans-53"/>
      </defs>
      <g transform="translate(117.882424 322.182437)scale(0.1 -0.1)">
       <use xlink:href="#DejaVuSans-53"/>
       <use x="63.623047" xlink:href="#DejaVuSans-48"/>
      </g>
     </g>
    </g>
    <g id="xtick_3">
     <g id="line2d_5">
      <path clip-path="url(#pc91cb19d4a)" d="M 174.65712 307.584 
L 174.65712 41.472 
" style="fill:none;stroke:#b0b0b0;stroke-linecap:square;stroke-width:0.8;"/>
     </g>
     <g id="line2d_6">
      <g>
       <use style="stroke:#000000;stroke-width:0.8;" x="174.65712" xlink:href="#m7d875cd25c" y="307.584"/>
      </g>
     </g>
     <g id="text_3">
      <!-- 100 -->
      <defs>
       <path d="M 12.40625 8.296875 
L 28.515625 8.296875 
L 28.515625 63.921875 
L 10.984375 60.40625 
L 10.984375 69.390625 
L 28.421875 72.90625 
L 38.28125 72.90625 
L 38.28125 8.296875 
L 54.390625 8.296875 
L 54.390625 0 
L 12.40625 0 
z
" id="DejaVuSans-49"/>
      </defs>
      <g transform="translate(165.11337 322.182437)scale(0.1 -0.1)">
       <use xlink:href="#DejaVuSans-49"/>
       <use x="63.623047" xlink:href="#DejaVuSans-48"/>
       <use x="127.246094" xlink:href="#DejaVuSans-48"/>
      </g>
     </g>
    </g>
    <g id="xtick_4">
     <g id="line2d_7">
      <path clip-path="url(#pc91cb19d4a)" d="M 225.069317 307.584 
L 225.069317 41.472 
" style="fill:none;stroke:#b0b0b0;stroke-linecap:square;stroke-width:0.8;"/>
     </g>
     <g id="line2d_8">
      <g>
       <use style="stroke:#000000;stroke-width:0.8;" x="225.069317" xlink:href="#m7d875cd25c" y="307.584"/>
      </g>
     </g>
     <g id="text_4">
      <!-- 150 -->
      <g transform="translate(215.525567 322.182437)scale(0.1 -0.1)">
       <use xlink:href="#DejaVuSans-49"/>
       <use x="63.623047" xlink:href="#DejaVuSans-53"/>
       <use x="127.246094" xlink:href="#DejaVuSans-48"/>
      </g>
     </g>
    </g>
    <g id="xtick_5">
     <g id="line2d_9">
      <path clip-path="url(#pc91cb19d4a)" d="M 275.481513 307.584 
L 275.481513 41.472 
" style="fill:none;stroke:#b0b0b0;stroke-linecap:square;stroke-width:0.8;"/>
     </g>
     <g id="line2d_10">
      <g>
       <use style="stroke:#000000;stroke-width:0.8;" x="275.481513" xlink:href="#m7d875cd25c" y="307.584"/>
      </g>
     </g>
     <g id="text_5">
      <!-- 200 -->
      <defs>
       <path d="M 19.1875 8.296875 
L 53.609375 8.296875 
L 53.609375 0 
L 7.328125 0 
L 7.328125 8.296875 
Q 12.9375 14.109375 22.625 23.890625 
Q 32.328125 33.6875 34.8125 36.53125 
Q 39.546875 41.84375 41.421875 45.53125 
Q 43.3125 49.21875 43.3125 52.78125 
Q 43.3125 58.59375 39.234375 62.25 
Q 35.15625 65.921875 28.609375 65.921875 
Q 23.96875 65.921875 18.8125 64.3125 
Q 13.671875 62.703125 7.8125 59.421875 
L 7.8125 69.390625 
Q 13.765625 71.78125 18.9375 73 
Q 24.125 74.21875 28.421875 74.21875 
Q 39.75 74.21875 46.484375 68.546875 
Q 53.21875 62.890625 53.21875 53.421875 
Q 53.21875 48.921875 51.53125 44.890625 
Q 49.859375 40.875 45.40625 35.40625 
Q 44.1875 33.984375 37.640625 27.21875 
Q 31.109375 20.453125 19.1875 8.296875 
z
" id="DejaVuSans-50"/>
      </defs>
      <g transform="translate(265.937763 322.182437)scale(0.1 -0.1)">
       <use xlink:href="#DejaVuSans-50"/>
       <use x="63.623047" xlink:href="#DejaVuSans-48"/>
       <use x="127.246094" xlink:href="#DejaVuSans-48"/>
      </g>
     </g>
    </g>
    <g id="xtick_6">
     <g id="line2d_11">
      <path clip-path="url(#pc91cb19d4a)" d="M 325.89371 307.584 
L 325.89371 41.472 
" style="fill:none;stroke:#b0b0b0;stroke-linecap:square;stroke-width:0.8;"/>
     </g>
     <g id="line2d_12">
      <g>
       <use style="stroke:#000000;stroke-width:0.8;" x="325.89371" xlink:href="#m7d875cd25c" y="307.584"/>
      </g>
     </g>
     <g id="text_6">
      <!-- 250 -->
      <g transform="translate(316.34996 322.182437)scale(0.1 -0.1)">
       <use xlink:href="#DejaVuSans-50"/>
       <use x="63.623047" xlink:href="#DejaVuSans-53"/>
       <use x="127.246094" xlink:href="#DejaVuSans-48"/>
      </g>
     </g>
    </g>
    <g id="xtick_7">
     <g id="line2d_13">
      <path clip-path="url(#pc91cb19d4a)" d="M 376.305906 307.584 
L 376.305906 41.472 
" style="fill:none;stroke:#b0b0b0;stroke-linecap:square;stroke-width:0.8;"/>
     </g>
     <g id="line2d_14">
      <g>
       <use style="stroke:#000000;stroke-width:0.8;" x="376.305906" xlink:href="#m7d875cd25c" y="307.584"/>
      </g>
     </g>
     <g id="text_7">
      <!-- 300 -->
      <defs>
       <path d="M 40.578125 39.3125 
Q 47.65625 37.796875 51.625 33 
Q 55.609375 28.21875 55.609375 21.1875 
Q 55.609375 10.40625 48.1875 4.484375 
Q 40.765625 -1.421875 27.09375 -1.421875 
Q 22.515625 -1.421875 17.65625 -0.515625 
Q 12.796875 0.390625 7.625 2.203125 
L 7.625 11.71875 
Q 11.71875 9.328125 16.59375 8.109375 
Q 21.484375 6.890625 26.8125 6.890625 
Q 36.078125 6.890625 40.9375 10.546875 
Q 45.796875 14.203125 45.796875 21.1875 
Q 45.796875 27.640625 41.28125 31.265625 
Q 36.765625 34.90625 28.71875 34.90625 
L 20.21875 34.90625 
L 20.21875 43.015625 
L 29.109375 43.015625 
Q 36.375 43.015625 40.234375 45.921875 
Q 44.09375 48.828125 44.09375 54.296875 
Q 44.09375 59.90625 40.109375 62.90625 
Q 36.140625 65.921875 28.71875 65.921875 
Q 24.65625 65.921875 20.015625 65.03125 
Q 15.375 64.15625 9.8125 62.3125 
L 9.8125 71.09375 
Q 15.4375 72.65625 20.34375 73.4375 
Q 25.25 74.21875 29.59375 74.21875 
Q 40.828125 74.21875 47.359375 69.109375 
Q 53.90625 64.015625 53.90625 55.328125 
Q 53.90625 49.265625 50.4375 45.09375 
Q 46.96875 40.921875 40.578125 39.3125 
z
" id="DejaVuSans-51"/>
      </defs>
      <g transform="translate(366.762156 322.182437)scale(0.1 -0.1)">
       <use xlink:href="#DejaVuSans-51"/>
       <use x="63.623047" xlink:href="#DejaVuSans-48"/>
       <use x="127.246094" xlink:href="#DejaVuSans-48"/>
      </g>
     </g>
    </g>
    <g id="text_8">
     <!-- Generations -->
     <defs>
      <path d="M 59.515625 10.40625 
L 59.515625 29.984375 
L 43.40625 29.984375 
L 43.40625 38.09375 
L 69.28125 38.09375 
L 69.28125 6.78125 
Q 63.578125 2.734375 56.6875 0.65625 
Q 49.8125 -1.421875 42 -1.421875 
Q 24.90625 -1.421875 15.25 8.5625 
Q 5.609375 18.5625 5.609375 36.375 
Q 5.609375 54.25 15.25 64.234375 
Q 24.90625 74.21875 42 74.21875 
Q 49.125 74.21875 55.546875 72.453125 
Q 61.96875 70.703125 67.390625 67.28125 
L 67.390625 56.78125 
Q 61.921875 61.421875 55.765625 63.765625 
Q 49.609375 66.109375 42.828125 66.109375 
Q 29.4375 66.109375 22.71875 58.640625 
Q 16.015625 51.171875 16.015625 36.375 
Q 16.015625 21.625 22.71875 14.15625 
Q 29.4375 6.6875 42.828125 6.6875 
Q 48.046875 6.6875 52.140625 7.59375 
Q 56.25 8.5 59.515625 10.40625 
z
" id="DejaVuSans-71"/>
      <path d="M 56.203125 29.59375 
L 56.203125 25.203125 
L 14.890625 25.203125 
Q 15.484375 15.921875 20.484375 11.0625 
Q 25.484375 6.203125 34.421875 6.203125 
Q 39.59375 6.203125 44.453125 7.46875 
Q 49.3125 8.734375 54.109375 11.28125 
L 54.109375 2.78125 
Q 49.265625 0.734375 44.1875 -0.34375 
Q 39.109375 -1.421875 33.890625 -1.421875 
Q 20.796875 -1.421875 13.15625 6.1875 
Q 5.515625 13.8125 5.515625 26.8125 
Q 5.515625 40.234375 12.765625 48.109375 
Q 20.015625 56 32.328125 56 
Q 43.359375 56 49.78125 48.890625 
Q 56.203125 41.796875 56.203125 29.59375 
z
M 47.21875 32.234375 
Q 47.125 39.59375 43.09375 43.984375 
Q 39.0625 48.390625 32.421875 48.390625 
Q 24.90625 48.390625 20.390625 44.140625 
Q 15.875 39.890625 15.1875 32.171875 
z
" id="DejaVuSans-101"/>
      <path d="M 54.890625 33.015625 
L 54.890625 0 
L 45.90625 0 
L 45.90625 32.71875 
Q 45.90625 40.484375 42.875 44.328125 
Q 39.84375 48.1875 33.796875 48.1875 
Q 26.515625 48.1875 22.3125 43.546875 
Q 18.109375 38.921875 18.109375 30.90625 
L 18.109375 0 
L 9.078125 0 
L 9.078125 54.6875 
L 18.109375 54.6875 
L 18.109375 46.1875 
Q 21.34375 51.125 25.703125 53.5625 
Q 30.078125 56 35.796875 56 
Q 45.21875 56 50.046875 50.171875 
Q 54.890625 44.34375 54.890625 33.015625 
z
" id="DejaVuSans-110"/>
      <path d="M 41.109375 46.296875 
Q 39.59375 47.171875 37.8125 47.578125 
Q 36.03125 48 33.890625 48 
Q 26.265625 48 22.1875 43.046875 
Q 18.109375 38.09375 18.109375 28.8125 
L 18.109375 0 
L 9.078125 0 
L 9.078125 54.6875 
L 18.109375 54.6875 
L 18.109375 46.1875 
Q 20.953125 51.171875 25.484375 53.578125 
Q 30.03125 56 36.53125 56 
Q 37.453125 56 38.578125 55.875 
Q 39.703125 55.765625 41.0625 55.515625 
z
" id="DejaVuSans-114"/>
      <path d="M 34.28125 27.484375 
Q 23.390625 27.484375 19.1875 25 
Q 14.984375 22.515625 14.984375 16.5 
Q 14.984375 11.71875 18.140625 8.90625 
Q 21.296875 6.109375 26.703125 6.109375 
Q 34.1875 6.109375 38.703125 11.40625 
Q 43.21875 16.703125 43.21875 25.484375 
L 43.21875 27.484375 
z
M 52.203125 31.203125 
L 52.203125 0 
L 43.21875 0 
L 43.21875 8.296875 
Q 40.140625 3.328125 35.546875 0.953125 
Q 30.953125 -1.421875 24.3125 -1.421875 
Q 15.921875 -1.421875 10.953125 3.296875 
Q 6 8.015625 6 15.921875 
Q 6 25.140625 12.171875 29.828125 
Q 18.359375 34.515625 30.609375 34.515625 
L 43.21875 34.515625 
L 43.21875 35.40625 
Q 43.21875 41.609375 39.140625 45 
Q 35.0625 48.390625 27.6875 48.390625 
Q 23 48.390625 18.546875 47.265625 
Q 14.109375 46.140625 10.015625 43.890625 
L 10.015625 52.203125 
Q 14.9375 54.109375 19.578125 55.046875 
Q 24.21875 56 28.609375 56 
Q 40.484375 56 46.34375 49.84375 
Q 52.203125 43.703125 52.203125 31.203125 
z
" id="DejaVuSans-97"/>
      <path d="M 18.3125 70.21875 
L 18.3125 54.6875 
L 36.8125 54.6875 
L 36.8125 47.703125 
L 18.3125 47.703125 
L 18.3125 18.015625 
Q 18.3125 11.328125 20.140625 9.421875 
Q 21.96875 7.515625 27.59375 7.515625 
L 36.8125 7.515625 
L 36.8125 0 
L 27.59375 0 
Q 17.1875 0 13.234375 3.875 
Q 9.28125 7.765625 9.28125 18.015625 
L 9.28125 47.703125 
L 2.6875 47.703125 
L 2.6875 54.6875 
L 9.28125 54.6875 
L 9.28125 70.21875 
z
" id="DejaVuSans-116"/>
      <path d="M 9.421875 54.6875 
L 18.40625 54.6875 
L 18.40625 0 
L 9.421875 0 
z
M 9.421875 75.984375 
L 18.40625 75.984375 
L 18.40625 64.59375 
L 9.421875 64.59375 
z
" id="DejaVuSans-105"/>
      <path d="M 30.609375 48.390625 
Q 23.390625 48.390625 19.1875 42.75 
Q 14.984375 37.109375 14.984375 27.296875 
Q 14.984375 17.484375 19.15625 11.84375 
Q 23.34375 6.203125 30.609375 6.203125 
Q 37.796875 6.203125 41.984375 11.859375 
Q 46.1875 17.53125 46.1875 27.296875 
Q 46.1875 37.015625 41.984375 42.703125 
Q 37.796875 48.390625 30.609375 48.390625 
z
M 30.609375 56 
Q 42.328125 56 49.015625 48.375 
Q 55.71875 40.765625 55.71875 27.296875 
Q 55.71875 13.875 49.015625 6.21875 
Q 42.328125 -1.421875 30.609375 -1.421875 
Q 18.84375 -1.421875 12.171875 6.21875 
Q 5.515625 13.875 5.515625 27.296875 
Q 5.515625 40.765625 12.171875 48.375 
Q 18.84375 56 30.609375 56 
z
" id="DejaVuSans-111"/>
      <path d="M 44.28125 53.078125 
L 44.28125 44.578125 
Q 40.484375 46.53125 36.375 47.5 
Q 32.28125 48.484375 27.875 48.484375 
Q 21.1875 48.484375 17.84375 46.4375 
Q 14.5 44.390625 14.5 40.28125 
Q 14.5 37.15625 16.890625 35.375 
Q 19.28125 33.59375 26.515625 31.984375 
L 29.59375 31.296875 
Q 39.15625 29.25 43.1875 25.515625 
Q 47.21875 21.78125 47.21875 15.09375 
Q 47.21875 7.46875 41.1875 3.015625 
Q 35.15625 -1.421875 24.609375 -1.421875 
Q 20.21875 -1.421875 15.453125 -0.5625 
Q 10.6875 0.296875 5.421875 2 
L 5.421875 11.28125 
Q 10.40625 8.6875 15.234375 7.390625 
Q 20.0625 6.109375 24.8125 6.109375 
Q 31.15625 6.109375 34.5625 8.28125 
Q 37.984375 10.453125 37.984375 14.40625 
Q 37.984375 18.0625 35.515625 20.015625 
Q 33.0625 21.96875 24.703125 23.78125 
L 21.578125 24.515625 
Q 13.234375 26.265625 9.515625 29.90625 
Q 5.8125 33.546875 5.8125 39.890625 
Q 5.8125 47.609375 11.28125 51.796875 
Q 16.75 56 26.8125 56 
Q 31.78125 56 36.171875 55.265625 
Q 40.578125 54.546875 44.28125 53.078125 
z
" id="DejaVuSans-115"/>
     </defs>
     <g transform="translate(205.662344 335.860562)scale(0.1 -0.1)">
      <use xlink:href="#DejaVuSans-71"/>
      <use x="77.490234" xlink:href="#DejaVuSans-101"/>
      <use x="139.013672" xlink:href="#DejaVuSans-110"/>
      <use x="202.392578" xlink:href="#DejaVuSans-101"/>
      <use x="263.916016" xlink:href="#DejaVuSans-114"/>
      <use x="305.029297" xlink:href="#DejaVuSans-97"/>
      <use x="366.308594" xlink:href="#DejaVuSans-116"/>
      <use x="405.517578" xlink:href="#DejaVuSans-105"/>
      <use x="433.300781" xlink:href="#DejaVuSans-111"/>
      <use x="494.482422" xlink:href="#DejaVuSans-110"/>
      <use x="557.861328" xlink:href="#DejaVuSans-115"/>
     </g>
    </g>
   </g>
   <g id="matplotlib.axis_2">
    <g id="ytick_1">
     <g id="line2d_15">
      <path clip-path="url(#pc91cb19d4a)" d="M 57.6 307.584 
L 414.72 307.584 
" style="fill:none;stroke:#b0b0b0;stroke-linecap:square;stroke-width:0.8;"/>
     </g>
     <g id="line2d_16">
      <defs>
       <path d="M 0 0 
L -3.5 0 
" id="mcdbf2a3b5c" style="stroke:#000000;stroke-width:0.8;"/>
      </defs>
      <g>
       <use style="stroke:#000000;stroke-width:0.8;" x="57.6" xlink:href="#mcdbf2a3b5c" y="307.584"/>
      </g>
     </g>
     <g id="text_9">
      <!-- $\mathdefault{2.3505\times10^{-2}}$ -->
      <defs>
       <path d="M 10.6875 12.40625 
L 21 12.40625 
L 21 0 
L 10.6875 0 
z
" id="DejaVuSans-46"/>
       <path d="M 70.125 53.71875 
L 47.796875 31.296875 
L 70.125 8.984375 
L 64.3125 3.078125 
L 41.890625 25.484375 
L 19.484375 3.078125 
L 13.71875 8.984375 
L 35.984375 31.296875 
L 13.71875 53.71875 
L 19.484375 59.625 
L 41.890625 37.203125 
L 64.3125 59.625 
z
" id="DejaVuSans-215"/>
       <path d="M 10.59375 35.5 
L 73.1875 35.5 
L 73.1875 27.203125 
L 10.59375 27.203125 
z
" id="DejaVuSans-8722"/>
      </defs>
      <g transform="translate(-20.1 311.383219)scale(0.1 -0.1)">
       <use transform="translate(0 0.765625)" xlink:href="#DejaVuSans-50"/>
       <use transform="translate(63.623047 0.765625)" xlink:href="#DejaVuSans-46"/>
       <use transform="translate(95.410156 0.765625)" xlink:href="#DejaVuSans-51"/>
       <use transform="translate(159.033203 0.765625)" xlink:href="#DejaVuSans-53"/>
       <use transform="translate(222.65625 0.765625)" xlink:href="#DejaVuSans-48"/>
       <use transform="translate(286.279297 0.765625)" xlink:href="#DejaVuSans-53"/>
       <use transform="translate(369.384766 0.765625)" xlink:href="#DejaVuSans-215"/>
       <use transform="translate(472.65625 0.765625)" xlink:href="#DejaVuSans-49"/>
       <use transform="translate(536.279297 0.765625)" xlink:href="#DejaVuSans-48"/>
       <use transform="translate(600.859375 39.046875)scale(0.7)" xlink:href="#DejaVuSans-8722"/>
       <use transform="translate(659.511719 39.046875)scale(0.7)" xlink:href="#DejaVuSans-50"/>
      </g>
     </g>
    </g>
    <g id="ytick_2">
     <g id="line2d_17">
      <path clip-path="url(#pc91cb19d4a)" d="M 57.6 41.472 
L 414.72 41.472 
" style="fill:none;stroke:#b0b0b0;stroke-linecap:square;stroke-width:0.8;"/>
     </g>
     <g id="line2d_18">
      <g>
       <use style="stroke:#000000;stroke-width:0.8;" x="57.6" xlink:href="#mcdbf2a3b5c" y="41.472"/>
      </g>
     </g>
     <g id="text_10">
      <!-- $\mathdefault{2.08405\times10^{-1}}$ -->
      <defs>
       <path d="M 31.78125 34.625 
Q 24.75 34.625 20.71875 30.859375 
Q 16.703125 27.09375 16.703125 20.515625 
Q 16.703125 13.921875 20.71875 10.15625 
Q 24.75 6.390625 31.78125 6.390625 
Q 38.8125 6.390625 42.859375 10.171875 
Q 46.921875 13.96875 46.921875 20.515625 
Q 46.921875 27.09375 42.890625 30.859375 
Q 38.875 34.625 31.78125 34.625 
z
M 21.921875 38.8125 
Q 15.578125 40.375 12.03125 44.71875 
Q 8.5 49.078125 8.5 55.328125 
Q 8.5 64.0625 14.71875 69.140625 
Q 20.953125 74.21875 31.78125 74.21875 
Q 42.671875 74.21875 48.875 69.140625 
Q 55.078125 64.0625 55.078125 55.328125 
Q 55.078125 49.078125 51.53125 44.71875 
Q 48 40.375 41.703125 38.8125 
Q 48.828125 37.15625 52.796875 32.3125 
Q 56.78125 27.484375 56.78125 20.515625 
Q 56.78125 9.90625 50.3125 4.234375 
Q 43.84375 -1.421875 31.78125 -1.421875 
Q 19.734375 -1.421875 13.25 4.234375 
Q 6.78125 9.90625 6.78125 20.515625 
Q 6.78125 27.484375 10.78125 32.3125 
Q 14.796875 37.15625 21.921875 38.8125 
z
M 18.3125 54.390625 
Q 18.3125 48.734375 21.84375 45.5625 
Q 25.390625 42.390625 31.78125 42.390625 
Q 38.140625 42.390625 41.71875 45.5625 
Q 45.3125 48.734375 45.3125 54.390625 
Q 45.3125 60.0625 41.71875 63.234375 
Q 38.140625 66.40625 31.78125 66.40625 
Q 25.390625 66.40625 21.84375 63.234375 
Q 18.3125 60.0625 18.3125 54.390625 
z
" id="DejaVuSans-56"/>
       <path d="M 37.796875 64.3125 
L 12.890625 25.390625 
L 37.796875 25.390625 
z
M 35.203125 72.90625 
L 47.609375 72.90625 
L 47.609375 25.390625 
L 58.015625 25.390625 
L 58.015625 17.1875 
L 47.609375 17.1875 
L 47.609375 0 
L 37.796875 0 
L 37.796875 17.1875 
L 4.890625 17.1875 
L 4.890625 26.703125 
z
" id="DejaVuSans-52"/>
      </defs>
      <g transform="translate(-26.5 45.271219)scale(0.1 -0.1)">
       <use transform="translate(0 0.684375)" xlink:href="#DejaVuSans-50"/>
       <use transform="translate(63.623047 0.684375)" xlink:href="#DejaVuSans-46"/>
       <use transform="translate(95.410156 0.684375)" xlink:href="#DejaVuSans-48"/>
       <use transform="translate(159.033203 0.684375)" xlink:href="#DejaVuSans-56"/>
       <use transform="translate(222.65625 0.684375)" xlink:href="#DejaVuSans-52"/>
       <use transform="translate(286.279297 0.684375)" xlink:href="#DejaVuSans-48"/>
       <use transform="translate(349.902344 0.684375)" xlink:href="#DejaVuSans-53"/>
       <use transform="translate(433.007812 0.684375)" xlink:href="#DejaVuSans-215"/>
       <use transform="translate(536.279297 0.684375)" xlink:href="#DejaVuSans-49"/>
       <use transform="translate(599.902344 0.684375)" xlink:href="#DejaVuSans-48"/>
       <use transform="translate(664.482422 38.965625)scale(0.7)" xlink:href="#DejaVuSans-8722"/>
       <use transform="translate(723.134766 38.965625)scale(0.7)" xlink:href="#DejaVuSans-49"/>
      </g>
     </g>
    </g>
    <g id="text_11">
     <!-- Fitness -->
     <defs>
      <path d="M 9.8125 72.90625 
L 51.703125 72.90625 
L 51.703125 64.59375 
L 19.671875 64.59375 
L 19.671875 43.109375 
L 48.578125 43.109375 
L 48.578125 34.8125 
L 19.671875 34.8125 
L 19.671875 0 
L 9.8125 0 
z
" id="DejaVuSans-70"/>
     </defs>
     <g transform="translate(-32.579688 192.202219)rotate(-90)scale(0.1 -0.1)">
      <use xlink:href="#DejaVuSans-70"/>
      <use x="57.410156" xlink:href="#DejaVuSans-105"/>
      <use x="85.193359" xlink:href="#DejaVuSans-116"/>
      <use x="124.402344" xlink:href="#DejaVuSans-110"/>
      <use x="187.78125" xlink:href="#DejaVuSans-101"/>
      <use x="249.304688" xlink:href="#DejaVuSans-115"/>
      <use x="301.404297" xlink:href="#DejaVuSans-115"/>
     </g>
    </g>
   </g>
   <g id="line2d_19">
    <path clip-path="url(#pc91cb19d4a)" d="M 73.832727 292.767214 
L 74.840971 294.134477 
L 75.849215 292.983097 
L 76.857459 294.170458 
L 77.865703 294.350361 
L 78.873947 291.687795 
L 79.882191 292.767214 
L 80.890435 292.299465 
L 81.898679 293.486826 
L 82.906923 291.651814 
L 83.915167 293.990555 
L 84.923411 293.666729 
L 85.931654 295.249877 
L 86.939898 294.422323 
L 87.948142 293.342904 
L 88.956386 293.774671 
L 89.96463 293.810652 
L 90.972874 292.839175 
L 91.981118 292.875156 
L 92.989362 293.055059 
L 93.997606 292.58731 
L 95.00585 294.161355 
L 96.014094 293.949216 
L 97.022338 293.86394 
L 98.030582 294.095102 
L 99.038826 292.991093 
L 100.047069 291.314282 
L 101.055313 293.904621 
L 102.063557 289.922299 
L 103.071801 292.273765 
L 104.080045 293.143626 
L 105.088289 295.488 
L 106.096533 292.419712 
L 107.104777 293.941199 
L 109.121265 289.287719 
L 110.129509 290.536415 
L 111.137753 293.106358 
L 112.145997 289.456996 
L 113.154241 295.268795 
L 114.162484 292.820628 
L 115.170728 293.535283 
L 116.178972 291.336891 
L 117.187216 294.892615 
L 118.19546 292.322621 
L 120.211948 288.962911 
L 121.220192 291.217388 
L 122.228436 295.401432 
L 123.23668 291.004695 
L 124.244924 291.543872 
L 125.253168 290.861135 
L 126.261412 290.612651 
L 127.269656 292.667408 
L 128.277899 293.653662 
L 129.286143 292.251373 
L 130.294387 291.615834 
L 131.302631 293.055059 
L 132.310875 293.12702 
L 133.319119 291.759756 
L 134.327363 289.169151 
L 135.335607 291.293274 
L 136.343851 292.839175 
L 137.352095 293.055059 
L 138.360339 291.075945 
L 139.368583 290.24857 
L 140.376827 291.184066 
L 141.385071 291.112105 
L 142.393315 288.017771 
L 143.401558 291.687795 
L 144.409802 290.320531 
L 145.418046 289.888763 
L 146.42629 290.136108 
L 147.434534 288.761973 
L 148.442778 289.485202 
L 149.451022 292.479369 
L 150.459266 290.896221 
L 151.46751 288.809345 
L 152.475754 294.422323 
L 153.483998 289.313073 
L 154.492242 293.342904 
L 155.500486 292.119562 
L 156.50873 292.263485 
L 157.516973 288.665422 
L 158.525217 288.881306 
L 159.533461 289.888763 
L 160.541705 292.983097 
L 161.549949 289.09719 
L 162.558193 288.449538 
L 163.566437 290.24857 
L 164.574681 289.960725 
L 165.582925 290.82426 
L 166.591169 288.305616 
L 167.599413 291.831717 
L 168.607657 286.564941 
L 169.615901 292.119562 
L 170.624145 292.263485 
L 171.632388 291.97564 
L 172.640632 290.608376 
L 173.648876 290.176608 
L 174.65712 289.528957 
L 175.665364 292.221597 
L 176.673608 290.464453 
L 177.681852 289.774493 
L 178.690096 291.510242 
L 179.69834 290.20843 
L 180.706584 291.220951 
L 181.714828 291.437919 
L 182.723072 289.313073 
L 183.731316 292.595085 
L 184.73956 291.147548 
L 185.747804 292.221597 
L 186.756047 290.359913 
L 187.764291 289.930293 
L 188.772535 287.94581 
L 189.780779 290.642368 
L 190.789023 290.104647 
L 191.797267 291.654888 
L 192.805511 288.449538 
L 193.813755 290.642368 
L 194.821999 291.97564 
L 195.830243 288.593461 
L 196.838487 291.256027 
L 197.846731 290.280753 
L 198.854975 290.82426 
L 199.863219 288.927848 
L 200.871462 289.787087 
L 201.879706 291.863581 
L 202.88795 290.176608 
L 203.896194 288.978942 
L 204.904438 290.752298 
L 205.912682 292.119562 
L 206.920926 290.680337 
L 207.92917 287.821776 
L 208.937414 290.752298 
L 209.945658 290.320531 
L 210.953902 288.784641 
L 211.962146 290.859336 
L 212.97039 289.774493 
L 213.978634 289.313073 
L 215.995121 288.089732 
L 217.003365 291.148628 
L 218.011609 290.425399 
L 219.019853 293.607605 
L 220.028097 289.787087 
L 222.044585 291.290755 
L 223.052829 287.010313 
L 224.061073 287.729926 
L 225.069317 289.744841 
L 227.085805 290.359913 
L 228.094049 288.355022 
L 229.102292 291.577168 
L 230.110536 289.025228 
L 231.11878 287.010313 
L 232.127024 289.285864 
L 233.135268 287.154236 
L 234.143512 290.464453 
L 235.151756 292.119562 
L 236.16 290.896221 
L 237.168244 290.176608 
L 238.176488 290.425399 
L 239.184732 291.903679 
L 240.192976 290.464453 
L 241.20122 289.744841 
L 242.209464 291.004342 
L 243.217708 293.414865 
L 244.225951 290.063785 
L 245.234195 290.497722 
L 246.242439 289.744841 
L 247.250683 290.392492 
L 248.258927 289.528957 
L 249.267171 289.67288 
L 250.275415 288.233655 
L 252.291903 290.392492 
L 253.300147 291.471911 
L 255.316635 291.687795 
L 256.324879 290.216706 
L 257.333123 293.96922 
L 258.341366 291.18552 
L 259.34961 292.407407 
L 260.357854 292.623291 
L 261.366098 292.149994 
L 262.374342 291.39995 
L 263.382586 294.85409 
L 264.39083 293.990555 
L 265.399074 291.831717 
L 266.407318 288.617327 
L 267.415562 291.437919 
L 268.423806 292.9567 
L 269.43205 292.161148 
L 270.440294 291.184066 
L 272.456781 290.789532 
L 273.465025 290.0735 
L 274.473269 292.695252 
L 275.481513 290.032686 
L 276.489757 291.076305 
L 277.498001 290.38595 
L 278.506245 292.857347 
L 279.514489 293.390637 
L 280.522733 292.130466 
L 281.530977 294.656471 
L 282.539221 291.437919 
L 283.547465 290.787013 
L 284.555709 287.226197 
L 285.563953 292.767214 
L 286.572196 289.67288 
L 287.58044 290.931659 
L 289.596928 290.896221 
L 290.605172 292.50801 
L 291.613416 291.39995 
L 292.62166 292.595085 
L 293.629904 290.176608 
L 294.638148 290.392492 
L 295.646392 289.268233 
L 296.654636 289.169151 
L 297.66288 290.032686 
L 298.671124 287.801887 
L 299.679368 286.506584 
L 300.687612 287.082274 
L 301.695855 290.20843 
L 302.704099 289.456996 
L 303.712343 290.536415 
L 304.720587 290.932739 
L 305.728831 288.18339 
L 307.745319 288.5215 
L 308.753563 286.99456 
L 309.761807 286.851354 
L 310.770051 292.667408 
L 311.778295 292.884377 
L 312.786539 291.903679 
L 313.794783 291.184066 
L 314.803027 291.944179 
L 315.81127 288.355022 
L 316.819514 293.414865 
L 317.827758 286.578546 
L 318.836002 289.313073 
L 319.844246 287.460161 
L 320.85249 289.241112 
L 321.860734 286.722468 
L 322.868978 288.5215 
L 323.877222 285.858933 
L 324.885466 288.017771 
L 325.89371 289.528957 
L 326.901954 287.801887 
L 327.910198 288.498228 
L 328.918442 287.729926 
L 329.926685 284.923437 
L 330.934929 285.211282 
L 331.943173 283.484212 
L 332.951417 284.203824 
L 333.959661 287.010313 
L 334.967905 289.19591 
L 335.976149 285.65209 
L 336.984393 286.074817 
L 337.992637 284.416844 
L 339.000881 288.737383 
L 340.009125 295.285858 
L 341.017369 288.881306 
L 342.025613 286.290701 
L 343.033857 286.708148 
L 344.042101 288.377577 
L 345.050344 285.777305 
L 346.058588 288.017771 
L 347.066832 288.211816 
L 348.075076 285.634099 
L 349.08332 285.930894 
L 350.091564 284.703257 
L 351.099808 284.707553 
L 352.108052 279.38242 
L 353.116296 281.901064 
L 354.12454 286.074817 
L 355.132784 286.002856 
L 356.141028 287.460161 
L 357.149272 291.471911 
L 358.157516 287.894099 
L 359.165759 285.858933 
L 360.174003 284.995398 
L 361.182247 288.978942 
L 362.190491 286.362662 
L 363.198735 284.059902 
L 364.206979 290.24857 
L 365.215223 288.881306 
L 366.223467 284.275785 
L 367.231711 283.557605 
L 368.239955 285.132876 
L 369.248199 290.001897 
L 370.256443 284.56363 
L 371.264687 287.387839 
L 372.272931 282.692638 
L 373.281174 286.851354 
L 374.289418 287.137767 
L 375.297662 285.920512 
L 376.305906 287.966422 
L 377.31415 284.928861 
L 379.330638 281.818978 
L 380.338882 285.427166 
L 381.347126 281.829103 
L 382.35537 283.337758 
L 383.363614 288.328036 
L 384.371858 285.715011 
L 385.380102 284.707553 
L 388.404833 288.5215 
L 389.413077 283.844018 
L 390.421321 285.211282 
L 391.429565 282.116948 
L 392.437809 283.557605 
L 393.446053 282.197143 
L 394.454297 283.052444 
L 395.462541 280.245955 
L 396.470785 283.268328 
L 398.487273 283.193112 
L 398.487273 283.193112 
" style="fill:none;stroke:#0000ff;stroke-linecap:square;stroke-width:1.5;"/>
   </g>
   <g id="line2d_20">
    <path clip-path="url(#pc91cb19d4a)" d="M 73.832727 273.697617 
L 75.849215 274.65472 
L 76.857459 275.696201 
L 77.865703 275.408825 
L 78.873947 271.523357 
L 79.882191 272.00742 
L 80.890435 270.940939 
L 81.898679 274.414514 
L 82.906923 270.048121 
L 83.915167 274.799822 
L 84.923411 274.8371 
L 85.931654 276.268229 
L 86.939898 274.742399 
L 87.948142 274.090611 
L 88.956386 275.265654 
L 89.96463 274.755487 
L 91.981118 273.306225 
L 92.989362 274.260079 
L 93.997606 273.748059 
L 95.00585 275.647438 
L 96.014094 275.628089 
L 98.030582 273.421123 
L 99.038826 273.512976 
L 100.047069 270.049905 
L 101.055313 272.55417 
L 102.063557 269.074209 
L 103.071801 273.30059 
L 104.080045 274.575188 
L 105.088289 278.272118 
L 106.096533 271.843721 
L 107.104777 275.081184 
L 108.113021 271.861308 
L 109.121265 266.795122 
L 110.129509 270.914466 
L 111.137753 273.151105 
L 112.145997 267.735184 
L 113.154241 278.109965 
L 114.162484 273.668776 
L 115.170728 274.076532 
L 116.178972 271.024723 
L 117.187216 277.19727 
L 119.203704 270.666465 
L 120.211948 268.130665 
L 121.220192 273.127195 
L 122.228436 276.953389 
L 123.23668 269.89429 
L 124.244924 270.993799 
L 125.253168 269.369187 
L 126.261412 268.465742 
L 127.269656 271.383585 
L 128.277899 273.874571 
L 129.286143 272.072997 
L 130.294387 272.101724 
L 131.302631 273.371846 
L 132.310875 273.189856 
L 133.319119 273.455551 
L 134.327363 267.28015 
L 135.335607 271.836674 
L 136.343851 272.110461 
L 137.352095 274.068194 
L 138.360339 269.535387 
L 139.368583 269.160238 
L 140.376827 268.657089 
L 141.385071 268.955633 
L 142.393315 264.695662 
L 143.401558 270.399057 
L 144.409802 266.464534 
L 145.418046 268.572678 
L 146.42629 270.014747 
L 147.434534 265.97694 
L 148.442778 264.093179 
L 149.451022 271.083749 
L 151.46751 267.240286 
L 152.475754 274.197369 
L 153.483998 267.412247 
L 154.492242 275.867131 
L 155.500486 272.573767 
L 156.50873 273.929457 
L 157.516973 268.605004 
L 158.525217 267.790396 
L 159.533461 269.516737 
L 160.541705 273.557423 
L 161.549949 268.582425 
L 162.558193 265.749897 
L 163.566437 268.199871 
L 164.574681 268.836082 
L 165.582925 270.727734 
L 166.591169 265.305466 
L 167.599413 270.49924 
L 168.607657 262.696669 
L 169.615901 272.680031 
L 170.624145 273.986034 
L 172.640632 271.143688 
L 173.648876 271.597779 
L 174.65712 269.333726 
L 175.665364 272.990028 
L 176.673608 270.375015 
L 177.681852 270.573078 
L 178.690096 271.68665 
L 179.69834 271.42146 
L 180.706584 271.870832 
L 181.714828 273.778694 
L 182.723072 270.352409 
L 183.731316 274.190371 
L 184.73956 273.324813 
L 185.747804 273.980048 
L 186.756047 272.149307 
L 187.764291 271.404001 
L 188.772535 268.509475 
L 189.780779 271.62104 
L 190.789023 270.340701 
L 191.797267 272.859567 
L 192.805511 269.477953 
L 193.813755 270.453014 
L 194.821999 273.794774 
L 195.830243 269.877446 
L 196.838487 273.513382 
L 197.846731 272.457311 
L 198.854975 272.115579 
L 199.863219 269.615404 
L 200.871462 270.829935 
L 201.879706 273.602368 
L 202.88795 270.886696 
L 203.896194 269.792242 
L 204.904438 271.66099 
L 205.912682 273.275192 
L 206.920926 272.14071 
L 207.92917 268.308803 
L 208.937414 272.778687 
L 209.945658 270.081628 
L 210.953902 267.849049 
L 211.962146 271.4555 
L 212.97039 270.357453 
L 213.978634 268.930881 
L 215.995121 265.525661 
L 217.003365 265.06282 
L 219.019853 273.630253 
L 220.028097 267.902953 
L 221.036341 266.458841 
L 222.044585 270.68071 
L 223.052829 267.638963 
L 224.061073 266.93773 
L 225.069317 268.879055 
L 226.077561 270.236172 
L 227.085805 270.47225 
L 228.094049 268.533466 
L 229.102292 271.427757 
L 230.110536 266.358461 
L 231.11878 266.648457 
L 232.127024 267.625677 
L 233.135268 265.531824 
L 234.143512 269.665783 
L 235.151756 272.894321 
L 236.16 270.64504 
L 237.168244 270.252825 
L 238.176488 270.763951 
L 239.184732 272.347156 
L 240.192976 272.671533 
L 241.20122 270.3185 
L 242.209464 271.418271 
L 243.217708 274.144425 
L 244.225951 268.642781 
L 245.234195 271.316475 
L 246.242439 271.472349 
L 247.250683 270.827631 
L 248.258927 270.824705 
L 249.267171 271.236327 
L 251.283659 268.248628 
L 252.291903 271.473524 
L 253.300147 270.324115 
L 254.308391 272.749354 
L 256.324879 271.619979 
L 257.333123 275.789834 
L 258.341366 271.955558 
L 260.357854 274.091905 
L 261.366098 272.126676 
L 262.374342 270.696233 
L 263.382586 275.4925 
L 264.39083 275.514722 
L 265.399074 271.956988 
L 266.407318 266.309034 
L 267.415562 271.930308 
L 268.423806 274.249246 
L 269.43205 273.278645 
L 270.440294 273.266436 
L 271.448538 272.140553 
L 272.456781 272.17627 
L 273.465025 271.87585 
L 274.473269 273.837696 
L 275.481513 270.324759 
L 276.489757 272.381997 
L 277.498001 272.115328 
L 278.506245 274.550901 
L 279.514489 274.957241 
L 280.522733 272.985453 
L 281.530977 276.119245 
L 282.539221 273.085002 
L 283.547465 272.949197 
L 284.555709 267.233008 
L 285.563953 274.192844 
L 286.572196 271.292589 
L 287.58044 273.034123 
L 288.588684 272.465709 
L 289.596928 270.902385 
L 290.605172 273.403761 
L 291.613416 272.748931 
L 292.62166 272.72195 
L 293.629904 269.288498 
L 294.638148 270.356871 
L 295.646392 269.783695 
L 296.654636 268.547009 
L 297.66288 268.515909 
L 298.671124 263.764781 
L 299.679368 261.081643 
L 300.687612 261.359271 
L 301.695855 267.461767 
L 302.704099 267.545296 
L 303.712343 267.201542 
L 304.720587 268.919196 
L 306.737075 260.869968 
L 307.745319 266.135302 
L 308.753563 260.283001 
L 309.761807 260.786988 
L 310.770051 269.464951 
L 311.778295 272.775497 
L 312.786539 270.093838 
L 313.794783 268.703112 
L 314.803027 270.862838 
L 315.81127 263.754541 
L 316.819514 272.298068 
L 317.827758 263.759224 
L 318.836002 266.305269 
L 319.844246 263.199962 
L 320.85249 263.237795 
L 321.860734 256.912784 
L 322.868978 262.617946 
L 323.877222 258.398759 
L 324.885466 264.299358 
L 326.901954 261.227325 
L 328.918442 261.915587 
L 329.926685 253.229834 
L 330.934929 256.119081 
L 331.943173 253.006687 
L 332.951417 254.869129 
L 333.959661 259.696869 
L 334.967905 263.700483 
L 335.976149 258.165022 
L 336.984393 258.612475 
L 337.992637 255.035599 
L 340.009125 274.119093 
L 341.017369 263.266738 
L 342.025613 259.787457 
L 343.033857 260.23547 
L 344.042101 264.442372 
L 345.050344 256.577403 
L 346.058588 259.977248 
L 347.066832 258.26077 
L 348.075076 254.744624 
L 349.08332 256.421602 
L 350.091564 256.219564 
L 351.099808 253.418389 
L 352.108052 244.176079 
L 353.116296 246.951963 
L 354.12454 252.319005 
L 356.141028 259.196813 
L 357.149272 268.224527 
L 358.157516 262.038698 
L 359.165759 257.764905 
L 360.174003 254.96556 
L 361.182247 260.896054 
L 362.190491 253.372134 
L 363.198735 252.446789 
L 364.206979 260.693687 
L 365.215223 258.223784 
L 366.223467 251.585727 
L 367.231711 250.978997 
L 368.239955 251.214247 
L 369.248199 264.863754 
L 370.256443 256.628201 
L 371.264687 260.570191 
L 372.272931 250.919971 
L 373.281174 258.732879 
L 374.289418 257.865613 
L 375.297662 256.554453 
L 376.305906 259.496921 
L 378.322394 248.937766 
L 379.330638 248.042107 
L 380.338882 255.24493 
L 381.347126 247.376567 
L 382.35537 249.488646 
L 383.363614 260.977175 
L 384.371858 255.106174 
L 385.380102 254.806287 
L 386.388346 255.454729 
L 387.396589 256.367798 
L 388.404833 258.888225 
L 389.413077 254.34868 
L 390.421321 253.989798 
L 391.429565 247.739044 
L 392.437809 250.074227 
L 393.446053 246.647018 
L 394.454297 249.975384 
L 395.462541 242.833022 
L 396.470785 249.520417 
L 397.479029 248.767122 
L 398.487273 246.940953 
L 398.487273 246.940953 
" style="fill:none;stroke:#008000;stroke-dasharray:9.6,2.4,1.5,2.4;stroke-dashoffset:0;stroke-width:1.5;"/>
   </g>
   <g id="line2d_21">
    <path clip-path="url(#pc91cb19d4a)" d="M 73.832727 211.882762 
L 76.857459 211.882762 
L 77.865703 197.490511 
L 78.873947 211.882762 
L 79.882191 211.882762 
L 80.890435 154.313758 
L 81.898679 211.882762 
L 82.906923 183.09826 
L 83.915167 211.882762 
L 84.923411 226.275013 
L 85.931654 211.882762 
L 86.939898 211.882762 
L 87.948142 197.490511 
L 88.956386 211.882762 
L 89.96463 211.882762 
L 90.972874 226.275013 
L 91.981118 183.09826 
L 92.989362 211.882762 
L 93.997606 226.275013 
L 95.00585 197.490511 
L 96.014094 183.09826 
L 97.022338 211.882762 
L 99.038826 211.882762 
L 100.047069 183.09826 
L 101.055313 168.706009 
L 105.088289 226.275013 
L 106.096533 183.09826 
L 107.104777 197.490511 
L 108.113021 197.490511 
L 109.121265 168.706009 
L 111.137753 226.275013 
L 112.145997 197.490511 
L 113.154241 240.667265 
L 114.162484 211.882762 
L 115.170728 211.882762 
L 116.178972 240.667265 
L 118.19546 240.667265 
L 120.211948 211.882762 
L 121.220192 226.275013 
L 122.228436 226.275013 
L 123.23668 183.09826 
L 124.244924 240.667265 
L 125.253168 183.09826 
L 126.261412 197.490511 
L 127.269656 154.313758 
L 128.277899 240.667265 
L 129.286143 211.882762 
L 132.310875 211.882762 
L 133.319119 226.275013 
L 134.327363 154.313758 
L 135.335607 211.882762 
L 139.368583 211.882762 
L 140.376827 183.09826 
L 141.385071 197.490511 
L 142.393315 197.490511 
L 143.401558 211.882762 
L 144.409802 154.313758 
L 145.418046 211.882762 
L 147.434534 211.882762 
L 148.442778 154.313758 
L 149.451022 197.490511 
L 150.459266 197.490511 
L 151.46751 211.882762 
L 152.475754 197.490511 
L 153.483998 197.490511 
L 154.492242 240.667265 
L 155.500486 211.882762 
L 156.50873 226.275013 
L 157.516973 197.490511 
L 158.525217 226.275013 
L 159.533461 226.275013 
L 160.541705 211.882762 
L 161.549949 211.882762 
L 162.558193 197.490511 
L 164.574681 226.275013 
L 165.582925 226.275013 
L 166.591169 197.490511 
L 167.599413 211.882762 
L 168.607657 168.706009 
L 169.615901 226.275013 
L 170.624145 255.059516 
L 171.632388 255.059516 
L 172.640632 240.667265 
L 173.648876 255.059516 
L 174.65712 183.09826 
L 175.665364 255.059516 
L 176.673608 226.275013 
L 177.681852 240.667265 
L 178.690096 211.882762 
L 179.69834 240.667265 
L 180.706584 226.275013 
L 181.714828 255.059516 
L 182.723072 211.882762 
L 183.731316 240.667265 
L 184.73956 226.275013 
L 186.756047 255.059516 
L 187.764291 255.059516 
L 188.772535 211.882762 
L 189.780779 226.275013 
L 190.789023 211.882762 
L 191.797267 226.275013 
L 192.805511 226.275013 
L 193.813755 197.490511 
L 194.821999 255.059516 
L 195.830243 240.667265 
L 196.838487 240.667265 
L 197.846731 269.451767 
L 198.854975 255.059516 
L 199.863219 226.275013 
L 200.871462 240.667265 
L 201.879706 240.667265 
L 202.88795 211.882762 
L 203.896194 211.882762 
L 204.904438 226.275013 
L 205.912682 255.059516 
L 206.920926 255.059516 
L 207.92917 211.882762 
L 208.937414 255.059516 
L 209.945658 197.490511 
L 210.953902 183.09826 
L 212.97039 240.667265 
L 213.978634 226.275013 
L 214.986877 197.490511 
L 215.995121 183.09826 
L 217.003365 154.313758 
L 218.011609 197.490511 
L 219.019853 211.882762 
L 220.028097 183.09826 
L 221.036341 183.09826 
L 222.044585 197.490511 
L 223.052829 226.275013 
L 224.061073 197.490511 
L 226.077561 197.490511 
L 228.094049 226.275013 
L 230.110536 197.490511 
L 231.11878 211.882762 
L 232.127024 197.490511 
L 233.135268 197.490511 
L 235.151756 226.275013 
L 236.16 211.882762 
L 239.184732 211.882762 
L 240.192976 240.667265 
L 241.20122 240.667265 
L 242.209464 226.275013 
L 243.217708 226.275013 
L 244.225951 197.490511 
L 245.234195 226.275013 
L 246.242439 269.451767 
L 247.250683 197.490511 
L 248.258927 269.451767 
L 249.267171 269.451767 
L 250.275415 240.667265 
L 251.283659 183.09826 
L 252.291903 240.667265 
L 253.300147 168.706009 
L 254.308391 255.059516 
L 255.316635 211.882762 
L 256.324879 226.275013 
L 257.333123 255.059516 
L 258.341366 197.490511 
L 259.34961 197.490511 
L 260.357854 226.275013 
L 261.366098 197.490511 
L 263.382586 197.490511 
L 264.39083 226.275013 
L 265.399074 197.490511 
L 266.407318 197.490511 
L 268.423806 226.275013 
L 269.43205 226.275013 
L 270.440294 269.451767 
L 271.448538 255.059516 
L 272.456781 255.059516 
L 273.465025 226.275013 
L 274.473269 211.882762 
L 275.481513 211.882762 
L 276.489757 255.059516 
L 277.498001 255.059516 
L 279.514489 226.275013 
L 280.522733 197.490511 
L 281.530977 211.882762 
L 282.539221 255.059516 
L 283.547465 255.059516 
L 284.555709 226.275013 
L 285.563953 226.275013 
L 287.58044 255.059516 
L 288.588684 240.667265 
L 289.596928 197.490511 
L 290.605172 226.275013 
L 291.613416 240.667265 
L 292.62166 211.882762 
L 294.638148 211.882762 
L 295.646392 226.275013 
L 296.654636 211.882762 
L 297.66288 226.275013 
L 298.671124 125.529256 
L 299.679368 197.490511 
L 305.728831 197.490511 
L 306.737075 168.706009 
L 307.745319 197.490511 
L 308.753563 154.313758 
L 309.761807 168.706009 
L 310.770051 197.490511 
L 311.778295 197.490511 
L 312.786539 183.09826 
L 314.803027 211.882762 
L 315.81127 183.09826 
L 316.819514 211.882762 
L 317.827758 197.490511 
L 318.836002 197.490511 
L 319.844246 183.09826 
L 320.85249 183.09826 
L 321.860734 168.706009 
L 324.885466 211.882762 
L 325.89371 183.09826 
L 326.901954 183.09826 
L 327.910198 197.490511 
L 329.926685 168.706009 
L 330.934929 168.706009 
L 332.951417 197.490511 
L 333.959661 168.706009 
L 334.967905 197.490511 
L 335.976149 197.490511 
L 336.984393 211.882762 
L 337.992637 183.09826 
L 339.000881 197.490511 
L 343.033857 197.490511 
L 344.042101 183.09826 
L 345.050344 183.09826 
L 346.058588 197.490511 
L 348.075076 168.706009 
L 349.08332 168.706009 
L 350.091564 197.490511 
L 351.099808 183.09826 
L 352.108052 183.09826 
L 353.116296 197.490511 
L 354.12454 183.09826 
L 355.132784 197.490511 
L 360.174003 197.490511 
L 362.190491 168.706009 
L 363.198735 168.706009 
L 364.206979 139.921507 
L 365.215223 168.706009 
L 366.223467 125.529256 
L 367.231711 168.706009 
L 368.239955 139.921507 
L 369.248199 197.490511 
L 371.264687 168.706009 
L 372.272931 183.09826 
L 373.281174 183.09826 
L 374.289418 168.706009 
L 375.297662 125.529256 
L 376.305906 168.706009 
L 377.31415 168.706009 
L 378.322394 139.921507 
L 379.330638 96.744753 
L 380.338882 168.706009 
L 382.35537 168.706009 
L 383.363614 183.09826 
L 384.371858 139.921507 
L 385.380102 183.09826 
L 386.388346 168.706009 
L 387.396589 168.706009 
L 388.404833 183.09826 
L 389.413077 168.706009 
L 390.421321 139.921507 
L 391.429565 168.706009 
L 392.437809 125.529256 
L 393.446053 139.921507 
L 394.454297 139.921507 
L 395.462541 168.706009 
L 396.470785 168.706009 
L 397.479029 139.921507 
L 398.487273 53.568 
L 398.487273 53.568 
" style="fill:none;stroke:#ff0000;stroke-linecap:square;stroke-width:1.5;"/>
   </g>
   <g id="patch_3">
    <path d="M 57.6 307.584 
L 57.6 41.472 
" style="fill:none;stroke:#000000;stroke-linecap:square;stroke-linejoin:miter;stroke-width:0.8;"/>
   </g>
   <g id="patch_4">
    <path d="M 414.72 307.584 
L 414.72 41.472 
" style="fill:none;stroke:#000000;stroke-linecap:square;stroke-linejoin:miter;stroke-width:0.8;"/>
   </g>
   <g id="patch_5">
    <path d="M 57.6 307.584 
L 414.72 307.584 
" style="fill:none;stroke:#000000;stroke-linecap:square;stroke-linejoin:miter;stroke-width:0.8;"/>
   </g>
   <g id="patch_6">
    <path d="M 57.6 41.472 
L 414.72 41.472 
" style="fill:none;stroke:#000000;stroke-linecap:square;stroke-linejoin:miter;stroke-width:0.8;"/>
   </g>
   <g id="text_12">
    <!-- Population's average and best fitness -->
    <defs>
     <path d="M 19.671875 64.796875 
L 19.671875 37.40625 
L 32.078125 37.40625 
Q 38.96875 37.40625 42.71875 40.96875 
Q 46.484375 44.53125 46.484375 51.125 
Q 46.484375 57.671875 42.71875 61.234375 
Q 38.96875 64.796875 32.078125 64.796875 
z
M 9.8125 72.90625 
L 32.078125 72.90625 
Q 44.34375 72.90625 50.609375 67.359375 
Q 56.890625 61.8125 56.890625 51.125 
Q 56.890625 40.328125 50.609375 34.8125 
Q 44.34375 29.296875 32.078125 29.296875 
L 19.671875 29.296875 
L 19.671875 0 
L 9.8125 0 
z
" id="DejaVuSans-80"/>
     <path d="M 18.109375 8.203125 
L 18.109375 -20.796875 
L 9.078125 -20.796875 
L 9.078125 54.6875 
L 18.109375 54.6875 
L 18.109375 46.390625 
Q 20.953125 51.265625 25.265625 53.625 
Q 29.59375 56 35.59375 56 
Q 45.5625 56 51.78125 48.09375 
Q 58.015625 40.1875 58.015625 27.296875 
Q 58.015625 14.40625 51.78125 6.484375 
Q 45.5625 -1.421875 35.59375 -1.421875 
Q 29.59375 -1.421875 25.265625 0.953125 
Q 20.953125 3.328125 18.109375 8.203125 
z
M 48.6875 27.296875 
Q 48.6875 37.203125 44.609375 42.84375 
Q 40.53125 48.484375 33.40625 48.484375 
Q 26.265625 48.484375 22.1875 42.84375 
Q 18.109375 37.203125 18.109375 27.296875 
Q 18.109375 17.390625 22.1875 11.75 
Q 26.265625 6.109375 33.40625 6.109375 
Q 40.53125 6.109375 44.609375 11.75 
Q 48.6875 17.390625 48.6875 27.296875 
z
" id="DejaVuSans-112"/>
     <path d="M 8.5 21.578125 
L 8.5 54.6875 
L 17.484375 54.6875 
L 17.484375 21.921875 
Q 17.484375 14.15625 20.5 10.265625 
Q 23.53125 6.390625 29.59375 6.390625 
Q 36.859375 6.390625 41.078125 11.03125 
Q 45.3125 15.671875 45.3125 23.6875 
L 45.3125 54.6875 
L 54.296875 54.6875 
L 54.296875 0 
L 45.3125 0 
L 45.3125 8.40625 
Q 42.046875 3.421875 37.71875 1 
Q 33.40625 -1.421875 27.6875 -1.421875 
Q 18.265625 -1.421875 13.375 4.4375 
Q 8.5 10.296875 8.5 21.578125 
z
M 31.109375 56 
z
" id="DejaVuSans-117"/>
     <path d="M 9.421875 75.984375 
L 18.40625 75.984375 
L 18.40625 0 
L 9.421875 0 
z
" id="DejaVuSans-108"/>
     <path d="M 17.921875 72.90625 
L 17.921875 45.796875 
L 9.625 45.796875 
L 9.625 72.90625 
z
" id="DejaVuSans-39"/>
     <path id="DejaVuSans-32"/>
     <path d="M 2.984375 54.6875 
L 12.5 54.6875 
L 29.59375 8.796875 
L 46.6875 54.6875 
L 56.203125 54.6875 
L 35.6875 0 
L 23.484375 0 
z
" id="DejaVuSans-118"/>
     <path d="M 45.40625 27.984375 
Q 45.40625 37.75 41.375 43.109375 
Q 37.359375 48.484375 30.078125 48.484375 
Q 22.859375 48.484375 18.828125 43.109375 
Q 14.796875 37.75 14.796875 27.984375 
Q 14.796875 18.265625 18.828125 12.890625 
Q 22.859375 7.515625 30.078125 7.515625 
Q 37.359375 7.515625 41.375 12.890625 
Q 45.40625 18.265625 45.40625 27.984375 
z
M 54.390625 6.78125 
Q 54.390625 -7.171875 48.1875 -13.984375 
Q 42 -20.796875 29.203125 -20.796875 
Q 24.46875 -20.796875 20.265625 -20.09375 
Q 16.0625 -19.390625 12.109375 -17.921875 
L 12.109375 -9.1875 
Q 16.0625 -11.328125 19.921875 -12.34375 
Q 23.78125 -13.375 27.78125 -13.375 
Q 36.625 -13.375 41.015625 -8.765625 
Q 45.40625 -4.15625 45.40625 5.171875 
L 45.40625 9.625 
Q 42.625 4.78125 38.28125 2.390625 
Q 33.9375 0 27.875 0 
Q 17.828125 0 11.671875 7.65625 
Q 5.515625 15.328125 5.515625 27.984375 
Q 5.515625 40.671875 11.671875 48.328125 
Q 17.828125 56 27.875 56 
Q 33.9375 56 38.28125 53.609375 
Q 42.625 51.21875 45.40625 46.390625 
L 45.40625 54.6875 
L 54.390625 54.6875 
z
" id="DejaVuSans-103"/>
     <path d="M 45.40625 46.390625 
L 45.40625 75.984375 
L 54.390625 75.984375 
L 54.390625 0 
L 45.40625 0 
L 45.40625 8.203125 
Q 42.578125 3.328125 38.25 0.953125 
Q 33.9375 -1.421875 27.875 -1.421875 
Q 17.96875 -1.421875 11.734375 6.484375 
Q 5.515625 14.40625 5.515625 27.296875 
Q 5.515625 40.1875 11.734375 48.09375 
Q 17.96875 56 27.875 56 
Q 33.9375 56 38.25 53.625 
Q 42.578125 51.265625 45.40625 46.390625 
z
M 14.796875 27.296875 
Q 14.796875 17.390625 18.875 11.75 
Q 22.953125 6.109375 30.078125 6.109375 
Q 37.203125 6.109375 41.296875 11.75 
Q 45.40625 17.390625 45.40625 27.296875 
Q 45.40625 37.203125 41.296875 42.84375 
Q 37.203125 48.484375 30.078125 48.484375 
Q 22.953125 48.484375 18.875 42.84375 
Q 14.796875 37.203125 14.796875 27.296875 
z
" id="DejaVuSans-100"/>
     <path d="M 48.6875 27.296875 
Q 48.6875 37.203125 44.609375 42.84375 
Q 40.53125 48.484375 33.40625 48.484375 
Q 26.265625 48.484375 22.1875 42.84375 
Q 18.109375 37.203125 18.109375 27.296875 
Q 18.109375 17.390625 22.1875 11.75 
Q 26.265625 6.109375 33.40625 6.109375 
Q 40.53125 6.109375 44.609375 11.75 
Q 48.6875 17.390625 48.6875 27.296875 
z
M 18.109375 46.390625 
Q 20.953125 51.265625 25.265625 53.625 
Q 29.59375 56 35.59375 56 
Q 45.5625 56 51.78125 48.09375 
Q 58.015625 40.1875 58.015625 27.296875 
Q 58.015625 14.40625 51.78125 6.484375 
Q 45.5625 -1.421875 35.59375 -1.421875 
Q 29.59375 -1.421875 25.265625 0.953125 
Q 20.953125 3.328125 18.109375 8.203125 
L 18.109375 0 
L 9.078125 0 
L 9.078125 75.984375 
L 18.109375 75.984375 
z
" id="DejaVuSans-98"/>
     <path d="M 37.109375 75.984375 
L 37.109375 68.5 
L 28.515625 68.5 
Q 23.6875 68.5 21.796875 66.546875 
Q 19.921875 64.59375 19.921875 59.515625 
L 19.921875 54.6875 
L 34.71875 54.6875 
L 34.71875 47.703125 
L 19.921875 47.703125 
L 19.921875 0 
L 10.890625 0 
L 10.890625 47.703125 
L 2.296875 47.703125 
L 2.296875 54.6875 
L 10.890625 54.6875 
L 10.890625 58.5 
Q 10.890625 67.625 15.140625 71.796875 
Q 19.390625 75.984375 28.609375 75.984375 
z
" id="DejaVuSans-102"/>
    </defs>
    <g transform="translate(123.315 35.472)scale(0.12 -0.12)">
     <use xlink:href="#DejaVuSans-80"/>
     <use x="60.255859" xlink:href="#DejaVuSans-111"/>
     <use x="121.4375" xlink:href="#DejaVuSans-112"/>
     <use x="184.914062" xlink:href="#DejaVuSans-117"/>
     <use x="248.292969" xlink:href="#DejaVuSans-108"/>
     <use x="276.076172" xlink:href="#DejaVuSans-97"/>
     <use x="337.355469" xlink:href="#DejaVuSans-116"/>
     <use x="376.564453" xlink:href="#DejaVuSans-105"/>
     <use x="404.347656" xlink:href="#DejaVuSans-111"/>
     <use x="465.529297" xlink:href="#DejaVuSans-110"/>
     <use x="528.908203" xlink:href="#DejaVuSans-39"/>
     <use x="556.398438" xlink:href="#DejaVuSans-115"/>
     <use x="608.498047" xlink:href="#DejaVuSans-32"/>
     <use x="640.285156" xlink:href="#DejaVuSans-97"/>
     <use x="701.564453" xlink:href="#DejaVuSans-118"/>
     <use x="760.744141" xlink:href="#DejaVuSans-101"/>
     <use x="822.267578" xlink:href="#DejaVuSans-114"/>
     <use x="863.380859" xlink:href="#DejaVuSans-97"/>
     <use x="924.660156" xlink:href="#DejaVuSans-103"/>
     <use x="988.136719" xlink:href="#DejaVuSans-101"/>
     <use x="1049.660156" xlink:href="#DejaVuSans-32"/>
     <use x="1081.447266" xlink:href="#DejaVuSans-97"/>
     <use x="1142.726562" xlink:href="#DejaVuSans-110"/>
     <use x="1206.105469" xlink:href="#DejaVuSans-100"/>
     <use x="1269.582031" xlink:href="#DejaVuSans-32"/>
     <use x="1301.369141" xlink:href="#DejaVuSans-98"/>
     <use x="1364.845703" xlink:href="#DejaVuSans-101"/>
     <use x="1426.369141" xlink:href="#DejaVuSans-115"/>
     <use x="1478.46875" xlink:href="#DejaVuSans-116"/>
     <use x="1517.677734" xlink:href="#DejaVuSans-32"/>
     <use x="1549.464844" xlink:href="#DejaVuSans-102"/>
     <use x="1584.669922" xlink:href="#DejaVuSans-105"/>
     <use x="1612.453125" xlink:href="#DejaVuSans-116"/>
     <use x="1651.662109" xlink:href="#DejaVuSans-110"/>
     <use x="1715.041016" xlink:href="#DejaVuSans-101"/>
     <use x="1776.564453" xlink:href="#DejaVuSans-115"/>
     <use x="1828.664062" xlink:href="#DejaVuSans-115"/>
    </g>
   </g>
   <g id="legend_1">
    <g id="patch_7">
     <path d="M 64.6 93.506375 
L 137.540625 93.506375 
Q 139.540625 93.506375 139.540625 91.506375 
L 139.540625 48.472 
Q 139.540625 46.472 137.540625 46.472 
L 64.6 46.472 
Q 62.6 46.472 62.6 48.472 
L 62.6 91.506375 
Q 62.6 93.506375 64.6 93.506375 
z
" style="fill:#ffffff;opacity:0.8;stroke:#cccccc;stroke-linejoin:miter;"/>
    </g>
    <g id="line2d_22">
     <path d="M 66.6 54.570438 
L 86.6 54.570438 
" style="fill:none;stroke:#0000ff;stroke-linecap:square;stroke-width:1.5;"/>
    </g>
    <g id="line2d_23"/>
    <g id="text_13">
     <!-- average -->
     <g transform="translate(94.6 58.070438)scale(0.1 -0.1)">
      <use xlink:href="#DejaVuSans-97"/>
      <use x="61.279297" xlink:href="#DejaVuSans-118"/>
      <use x="120.458984" xlink:href="#DejaVuSans-101"/>
      <use x="181.982422" xlink:href="#DejaVuSans-114"/>
      <use x="223.095703" xlink:href="#DejaVuSans-97"/>
      <use x="284.375" xlink:href="#DejaVuSans-103"/>
      <use x="347.851562" xlink:href="#DejaVuSans-101"/>
     </g>
    </g>
    <g id="line2d_24">
     <path d="M 66.6 69.248563 
L 86.6 69.248563 
" style="fill:none;stroke:#008000;stroke-dasharray:9.6,2.4,1.5,2.4;stroke-dashoffset:0;stroke-width:1.5;"/>
    </g>
    <g id="line2d_25"/>
    <g id="text_14">
     <!-- +1 sd -->
     <defs>
      <path d="M 46 62.703125 
L 46 35.5 
L 73.1875 35.5 
L 73.1875 27.203125 
L 46 27.203125 
L 46 0 
L 37.796875 0 
L 37.796875 27.203125 
L 10.59375 27.203125 
L 10.59375 35.5 
L 37.796875 35.5 
L 37.796875 62.703125 
z
" id="DejaVuSans-43"/>
     </defs>
     <g transform="translate(94.6 72.748563)scale(0.1 -0.1)">
      <use xlink:href="#DejaVuSans-43"/>
      <use x="83.789062" xlink:href="#DejaVuSans-49"/>
      <use x="147.412109" xlink:href="#DejaVuSans-32"/>
      <use x="179.199219" xlink:href="#DejaVuSans-115"/>
      <use x="231.298828" xlink:href="#DejaVuSans-100"/>
     </g>
    </g>
    <g id="line2d_26">
     <path d="M 66.6 83.926688 
L 86.6 83.926688 
" style="fill:none;stroke:#ff0000;stroke-linecap:square;stroke-width:1.5;"/>
    </g>
    <g id="line2d_27"/>
    <g id="text_15">
     <!-- best -->
     <g transform="translate(94.6 87.426688)scale(0.1 -0.1)">
      <use xlink:href="#DejaVuSans-98"/>
      <use x="63.476562" xlink:href="#DejaVuSans-101"/>
      <use x="125" xlink:href="#DejaVuSans-115"/>
      <use x="177.099609" xlink:href="#DejaVuSans-116"/>
     </g>
    </g>
   </g>
  </g>
 </g>
 <defs>
  <clipPath id="pc91cb19d4a">
   <rect height="266.112" width="357.12" x="57.6" y="41.472"/>
  </clipPath>
 </defs>
</svg>
